<svg width="29" height="33" viewBox="0 0 29 33" fill="none" xmlns="http://www.w3.org/2000/svg">
<g id="bxl-instagram 1">
<path id="Vector" d="M14.4632 9.89209C12.985 9.89209 11.5674 10.5417 10.5221 11.6979C9.47686 12.8541 8.88965 14.4223 8.88965 16.0574C8.88965 17.6926 9.47686 19.2607 10.5221 20.417C11.5674 21.5732 12.985 22.2228 14.4632 22.2228C15.9414 22.2228 17.3591 21.5732 18.4043 20.417C19.4496 19.2607 20.0368 17.6926 20.0368 16.0574C20.0368 14.4223 19.4496 12.8541 18.4043 11.6979C17.3591 10.5417 15.9414 9.89209 14.4632 9.89209V9.89209ZM14.4632 20.0614C13.5029 20.0614 12.5819 19.6394 11.9029 18.8883C11.2238 18.1371 10.8423 17.1184 10.8423 16.0561C10.8423 14.9938 11.2238 13.975 11.9029 13.2239C12.5819 12.4727 13.5029 12.0508 14.4632 12.0508C15.4235 12.0508 16.3445 12.4727 17.0236 13.2239C17.7026 13.975 18.0841 14.9938 18.0841 16.0561C18.0841 17.1184 17.7026 18.1371 17.0236 18.8883C16.3445 19.6394 15.4235 20.0614 14.4632 20.0614V20.0614Z" fill="white"/>
<path id="Vector_2" d="M20.2574 11.1027C20.975 11.1027 21.5568 10.4592 21.5568 9.66536C21.5568 8.87154 20.975 8.22803 20.2574 8.22803C19.5398 8.22803 18.958 8.87154 18.958 9.66536C18.958 10.4592 19.5398 11.1027 20.2574 11.1027Z" fill="white"/>
</g>
</svg>
