<svg width="23" height="25" viewBox="0 0 23 25" fill="none" xmlns="http://www.w3.org/2000/svg">
<g id="Group 48095527">
<path id="Vector" d="M11.4632 5.89209C9.98502 5.89209 8.56736 6.54165 7.52211 7.69787C6.47686 8.8541 5.88965 10.4223 5.88965 12.0574C5.88965 13.6926 6.47686 15.2607 7.52211 16.417C8.56736 17.5732 9.98502 18.2228 11.4632 18.2228C12.9414 18.2228 14.3591 17.5732 15.4043 16.417C16.4496 15.2607 17.0368 13.6926 17.0368 12.0574C17.0368 10.4223 16.4496 8.8541 15.4043 7.69787C14.3591 6.54165 12.9414 5.89209 11.4632 5.89209V5.89209ZM11.4632 16.0614C10.5029 16.0614 9.58191 15.6394 8.90286 14.8883C8.22381 14.1371 7.84233 13.1184 7.84233 12.0561C7.84233 10.9938 8.22381 9.97504 8.90286 9.22389C9.58191 8.47275 10.5029 8.05076 11.4632 8.05076C12.4235 8.05076 13.3445 8.47275 14.0236 9.22389C14.7026 9.97504 15.0841 10.9938 15.0841 12.0561C15.0841 13.1184 14.7026 14.1371 14.0236 14.8883C13.3445 15.6394 12.4235 16.0614 11.4632 16.0614V16.0614Z" fill="white"/>
<path id="Vector_2" d="M17.2574 7.10269C17.975 7.10269 18.5568 6.45918 18.5568 5.66536C18.5568 4.87154 17.975 4.22803 17.2574 4.22803C16.5398 4.22803 15.958 4.87154 15.958 5.66536C15.958 6.45918 16.5398 7.10269 17.2574 7.10269Z" fill="white"/>
<path id="Vector_3" d="M21.7493 4.20432C21.4702 3.40723 21.0438 2.68336 20.4973 2.07907C19.9508 1.47477 19.2963 1.00335 18.5756 0.694988C17.7322 0.344798 16.8413 0.155443 15.9407 0.134988C14.7799 0.0789881 14.4123 0.0629883 11.4688 0.0629883C8.52531 0.0629883 8.14803 0.0629881 6.99691 0.134988C6.09698 0.154397 5.20667 0.34379 4.36441 0.694988C3.64353 1.00299 2.98882 1.47428 2.44227 2.07863C1.89573 2.68297 1.46942 3.40702 1.19071 4.20432C0.874067 5.13714 0.70328 6.12277 0.685664 7.11899C0.633834 8.40165 0.618164 8.80832 0.618164 12.0657C0.618164 15.3217 0.618164 15.7363 0.685664 17.0123C0.703744 18.0097 0.8737 18.9937 1.19071 19.9283C1.4702 20.7253 1.89692 21.4491 2.4436 22.0534C2.99028 22.6576 3.64489 23.1291 4.36562 23.4377C5.20628 23.8019 6.09696 24.0048 6.99932 24.0377C8.16008 24.0937 8.52772 24.111 11.4712 24.111C14.4147 24.111 14.792 24.111 15.9431 24.0377C16.8436 24.0174 17.7345 23.8285 18.578 23.479C19.2985 23.1699 19.9528 22.6981 20.4993 22.0936C21.0457 21.4892 21.4723 20.7653 21.7517 19.9683C22.0687 19.035 22.2387 18.051 22.2567 17.0537C22.3086 15.771 22.3242 15.3643 22.3242 12.107C22.3242 8.84965 22.3242 8.43632 22.2567 7.16032C22.2427 6.15002 22.071 5.14999 21.7493 4.20432V4.20432ZM20.2812 16.9137C20.2734 17.6821 20.1466 18.4433 19.9063 19.1643C19.7253 19.6828 19.4482 20.1537 19.0928 20.5466C18.7374 20.9395 18.3115 21.2457 17.8427 21.4457C17.1981 21.7102 16.5173 21.8505 15.8298 21.8603C14.6847 21.919 14.3616 21.9337 11.4254 21.9337C8.48674 21.9337 8.1866 21.9337 7.01982 21.8603C6.33267 21.851 5.65213 21.7107 5.00807 21.4457C4.53761 21.247 4.11009 20.9412 3.75317 20.5483C3.39624 20.1553 3.11788 19.6838 2.93607 19.1643C2.69915 18.4511 2.57242 17.6988 2.5612 16.939C2.50937 15.6723 2.49732 15.315 2.49732 12.067C2.49732 8.81765 2.49732 8.48565 2.5612 7.19365C2.56899 6.42568 2.69578 5.66488 2.93607 4.94432C3.3037 3.89232 4.05705 3.06432 5.00807 2.66165C5.65245 2.39784 6.33279 2.25761 7.01982 2.24699C8.16611 2.18965 8.48794 2.17365 11.4254 2.17365C14.3629 2.17365 14.6642 2.17365 15.8298 2.24699C16.5173 2.25614 17.1983 2.39642 17.8427 2.66165C18.3115 2.86202 18.7373 3.16859 19.0926 3.56169C19.448 3.9548 19.7252 4.42575 19.9063 4.94432C20.1432 5.65759 20.2699 6.40987 20.2812 7.16965C20.333 8.43765 20.3462 8.79365 20.3462 12.043C20.3462 15.291 20.3462 15.6403 20.2944 16.915H20.2812V16.9137Z" fill="white"/>
</g>
</svg>
