<svg width="25" height="28" viewBox="0 0 25 28" fill="none" xmlns="http://www.w3.org/2000/svg">
<path id="Vector" d="M22.9392 7.36266C21.8874 5.34629 20.3736 3.67227 18.5505 2.50932C16.7027 1.31866 14.6862 0.722656 12.5008 0.722656C10.3155 0.722656 8.29896 1.31866 6.44994 2.50932C4.60213 3.69999 3.13883 5.31866 2.06244 7.36266C0.98606 9.40666 0.447266 11.6387 0.447266 14.056C0.447266 16.4733 0.984855 18.7053 2.06244 20.7493C3.11391 22.766 4.62775 24.4401 6.45115 25.6027C8.29896 26.7933 10.3155 27.3893 12.5008 27.3893C14.6862 27.3893 16.7027 26.7933 18.5517 25.6027C20.3749 24.4397 21.8886 22.7657 22.9404 20.7493C24.0168 18.7053 24.5544 16.4733 24.5544 14.056C24.5544 11.6387 24.0168 9.40666 22.9392 7.36266ZM12.5008 2.93599C14.9116 2.93599 17.0474 3.78932 18.9133 5.49466C17.8044 7.05999 16.1579 8.34799 13.9714 9.36132C12.7636 6.94399 11.4546 4.92532 10.0407 3.30799C10.842 3.0629 11.6694 2.93778 12.5008 2.93599V2.93599ZM4.67807 7.12266C5.55947 5.88456 6.6747 4.87435 7.94579 4.16266C9.40669 5.76399 10.7482 7.76266 11.9717 10.1627C9.56097 10.9627 7.01285 11.3627 4.32852 11.3627C3.63785 11.3627 3.11593 11.3453 2.76155 11.3093C3.13096 9.78183 3.78363 8.35606 4.67807 7.12266V7.12266ZM2.44816 14.056C2.44816 13.984 2.45177 13.896 2.46021 13.7893C2.46865 13.6827 2.47227 13.5947 2.47227 13.5227C2.77843 13.5413 3.2449 13.5493 3.87169 13.5493C7.08517 13.5493 10.0745 13.06 12.8383 12.0827C13.0637 12.58 13.2976 13.14 13.5374 13.7627C11.9464 14.1533 10.3143 15.104 8.64249 16.616C6.97066 18.128 5.75084 19.7187 4.97941 21.3893C3.29191 19.2733 2.44816 16.8293 2.44816 14.056V14.056ZM12.5008 25.176C10.2179 25.176 8.16878 24.3933 6.35231 22.8307C7.07673 21.248 8.18927 19.7347 9.69236 18.296C11.1942 16.856 12.6853 15.9587 14.1642 15.6027C15.0972 18.4546 15.7282 21.4166 16.0446 24.4293C14.915 24.9176 13.7136 25.1707 12.5008 25.176V25.176ZM21.0348 19.896C20.2458 21.302 19.1834 22.4959 17.9249 23.3907C17.6357 20.6173 17.0812 17.9147 16.2628 15.2827C17.3862 15.1947 18.3902 15.1493 19.2762 15.1493C20.2392 15.1493 21.3084 15.1947 22.4812 15.2827C22.3238 16.9224 21.8291 18.5006 21.0348 19.896ZM19.5401 13.2293C18.1419 13.2293 16.8486 13.292 15.6589 13.416C15.4069 12.6864 15.1335 11.966 14.8392 11.256C17.3295 10.048 19.0966 8.58132 20.1416 6.85599C21.588 8.74132 22.3763 10.892 22.5041 13.3093C21.5253 13.256 20.537 13.2293 19.5401 13.2293V13.2293Z" fill="white"/>
</svg>
